HIERARCHY
ROOT joint_Root
{
	OFFSET 0.0 0.0 0.0
	CHANNELS 6 Xposition Yposition Zposition Zrotation Xrotation Yrotation 
	JOINT Hips
	{
		OFFSET -0.726466 93.3139 -2.00062
		CHANNELS 6 Xposition Yposition Zposition Zrotation Xrotation Yrotation 
		JOINT Spine
		{
			OFFSET 15.7357 0.0 0.0
			CHANNELS 6 Xposition Yposition Zposition Zrotation Xrotation Yrotation 
			JOINT Chest
			{
				OFFSET 8.98455 -0.406207 0.0
				CHANNELS 6 Xposition Yposition Zposition Zrotation Xrotation Yrotation 
				JOINT Neck
				{
					OFFSET 16.3773 0.0 0.0
					CHANNELS 6 Xposition Yposition Zposition Zrotation Xrotation Yrotation 
					JOINT Head
					{
						OFFSET 6.45672 0.0 0.0
						CHANNELS 6 Xposition Yposition Zposition Zrotation Xrotation Yrotation 
						End Site
						{
							OFFSET 0.0 0.0 0.0
						}
					}
				}
				JOINT Shoulder_L
				{
					OFFSET 12.9942 -0.242716 4.98039
					CHANNELS 6 Xposition Yposition Zposition Zrotation Xrotation Yrotation 
					JOINT UpperArm_L
					{
						OFFSET 5.34809 0.0 0.0
						CHANNELS 6 Xposition Yposition Zposition Zrotation Xrotation Yrotation 
						JOINT LowerArm_L
						{
							OFFSET 24.3286 1.87007e-05 0.0
							CHANNELS 6 Xposition Yposition Zposition Zrotation Xrotation Yrotation 
							JOINT Hand_L
							{
								OFFSET 22.2916 0.0 0.0
								CHANNELS 6 Xposition Yposition Zposition Zrotation Xrotation Yrotation 
								End Site
								{
									OFFSET 0.0 0.0 0.0
								}
							}
						}
					}
				}
				JOINT Shoulder_R
				{
					OFFSET 12.9945 -0.242716 -4.98039
					CHANNELS 6 Xposition Yposition Zposition Zrotation Xrotation Yrotation 
					JOINT UpperArm_R
					{
						OFFSET -5.34813 0.0 0.0
						CHANNELS 6 Xposition Yposition Zposition Zrotation Xrotation Yrotation 
						JOINT LowerArm_R
						{
							OFFSET -24.3289 0.000322201 0.0
							CHANNELS 6 Xposition Yposition Zposition Zrotation Xrotation Yrotation 
							JOINT Hand_R
							{
								OFFSET -22.2915 -0.000108084 0.0
								CHANNELS 6 Xposition Yposition Zposition Zrotation Xrotation Yrotation 
								End Site
								{
									OFFSET 0.0 0.0 0.0
								}
							}
						}
					}
				}
			}
		}
		JOINT UpperLeg_L
		{
			OFFSET -2.19248 -6.46944 0.0
			CHANNELS 6 Xposition Yposition Zposition Zrotation Xrotation Yrotation 
			JOINT LowerLeg_L
			{
				OFFSET 39.0811 0.0 -1.23785e-05
				CHANNELS 6 Xposition Yposition Zposition Zrotation Xrotation Yrotation 
				JOINT Foot_L
				{
					OFFSET 40.9854 0.0 -1.26872e-05
					CHANNELS 6 Xposition Yposition Zposition Zrotation Xrotation Yrotation 
					JOINT Toes_L
					{
						OFFSET 11.7543 0.0 0.0
						CHANNELS 6 Xposition Yposition Zposition Zrotation Xrotation Yrotation 
						End Site
						{
							OFFSET 0.0 0.0 0.0
						}
					}
				}
			}
		}
		JOINT UpperLeg_R
		{
			OFFSET -2.19251 6.46944 0.0
			CHANNELS 6 Xposition Yposition Zposition Zrotation Xrotation Yrotation 
			JOINT LowerLeg_R
			{
				OFFSET -39.0811 -0.00228153 -0.0401928
				CHANNELS 6 Xposition Yposition Zposition Zrotation Xrotation Yrotation 
				JOINT Foot_R
				{
					OFFSET -40.9854 0.0 0.0
					CHANNELS 6 Xposition Yposition Zposition Zrotation Xrotation Yrotation 
					JOINT Toes_R
					{
						OFFSET -11.7543 0.0 0.0
						CHANNELS 6 Xposition Yposition Zposition Zrotation Xrotation Yrotation 
						End Site
						{
							OFFSET 0.0 0.0 0.0
						}
					}
				}
			}
		}
	}
}
MOTION
Frames:	4
Frame Time:	0.0333333
0.000000 0.000000 0.000000 0.000000 0.000000 -0.000000 -1.587610 92.338300 -0.810660 88.033700 -2.532500 3.352430 15.735700 0.000005 -0.000001 80.087900 85.702600 -78.695800 8.984550 -0.406207 -0.000000 0.721397 -1.564510 2.792080 16.377300 -0.000001 -0.000001 4.586940 -2.616830 0.745051 6.456720 -0.000001 -0.000000 2.337800 -1.725040 5.878710 12.994200 -0.242716 4.980390 -88.325800 -5.066890 -71.687700 5.348090 -0.000007 -0.000001 -98.051500 -35.183900 -80.775300 24.328600 0.000019 0.000005 13.361900 1.347530 -84.345600 22.291600 -0.000001 0.000005 39.963100 5.458300 -4.938960 12.994500 -0.242716 -4.980390 87.575600 6.879960 -70.534700 -5.348130 -0.000001 -0.000004 -64.371800 36.602400 -15.094400 -24.328900 0.000322 -0.000009 1.711500 4.783850 -19.723200 -22.291500 -0.000108 -0.000004 10.033800 5.331910 -0.841154 -2.192480 -6.469440 -0.000000 -174.896000 -7.665240 -2.939830 39.081100 -0.000007 -0.000012 -0.118464 0.287045 22.426200 40.985400 -0.000006 -0.000013 -1.004380 2.802890 -66.123300 11.754300 -0.000000 0.000003 -0.000043 -0.000500 -16.597000 -2.192510 6.469440 -0.000001 -179.621000 12.408900 178.771000 -39.081100 -0.002282 -0.040193 -0.055795 0.167273 19.464400 -40.985400 0.000008 0.000006 3.284370 8.345470 -65.403700 -11.754300 -0.000006 -0.000006 -0.007075 -0.080302 -19.842200
0.000000 0.000000 0.000000 0.000000 0.000000 -0.000000 -1.603090 92.339600 -0.760716 88.036800 -2.450740 3.314920 15.735700 0.000005 -0.000001 80.411000 85.709300 -79.023900 8.984550 -0.406207 -0.000000 0.715734 -1.514300 2.781780 16.377300 -0.000001 -0.000001 4.580020 -2.612730 0.854849 6.456720 -0.000001 -0.000000 2.339530 -1.768220 5.973770 12.994200 -0.242716 4.980390 -88.346100 -5.002380 -71.678200 5.348090 -0.000007 -0.000001 -95.310500 -35.859800 -79.168100 24.328600 0.000019 0.000005 13.672500 1.469770 -83.980600 22.291600 -0.000001 0.000005 39.407300 5.439130 -4.255780 12.994500 -0.242716 -4.980390 87.549400 6.942980 -70.503600 -5.348130 -0.000001 -0.000004 -64.233400 36.857400 -14.750600 -24.328900 0.000322 -0.000009 1.660450 4.626760 -19.778500 -22.291500 -0.000108 -0.000004 9.716980 5.332450 -0.857130 -2.192480 -6.469440 -0.000000 -174.899000 -7.591610 -2.931170 39.081100 -0.000007 -0.000012 -0.118796 0.288452 22.384000 40.985400 -0.000006 -0.000013 -1.012140 2.811920 -66.133500 11.754300 -0.000000 0.000003 -0.000048 -0.000549 -16.598900 -2.192510 6.469440 -0.000001 -179.616000 12.428600 178.806000 -39.081100 -0.002282 -0.040193 -0.054136 0.162993 19.418500 -40.985400 0.000008 0.000006 3.334720 8.301030 -65.441000 -11.754300 -0.000006 -0.000006 -0.006973 -0.079432 -19.806700
0.000000 0.000000 0.000000 0.000000 0.000000 -0.000000 -1.611410 92.325900 -0.685584 88.019000 -2.210450 3.377860 15.735700 0.000005 -0.000001 81.082900 85.680600 -79.731500 8.984550 -0.406207 -0.000000 0.786871 -1.420850 2.710410 16.377300 -0.000001 -0.000001 4.511090 -2.611620 1.046380 6.456720 -0.000001 -0.000000 2.319310 -1.861810 6.121730 12.994200 -0.242716 4.980390 -88.427000 -4.729470 -71.579400 5.348090 -0.000007 -0.000001 -89.005600 -35.577100 -75.591200 24.328600 0.000019 0.000005 15.076900 1.126100 -85.824500 22.291600 -0.000001 0.000005 39.582800 5.455940 -4.852450 12.994500 -0.242716 -4.980390 87.513900 7.028340 -70.463400 -5.348130 -0.000001 -0.000004 -64.205300 37.009900 -14.170000 -24.328900 0.000322 -0.000009 1.645190 4.546920 -19.927500 -22.291500 -0.000108 -0.000004 9.512270 5.330030 -0.786461 -2.192480 -6.469440 -0.000000 -174.854000 -7.458230 -2.891080 39.081100 -0.000007 -0.000012 -0.119925 0.290056 22.462900 40.985400 -0.000006 -0.000013 -0.996916 2.952680 -66.204300 11.754300 -0.000000 0.000003 -0.000049 -0.000560 -16.599300 -2.192510 6.469440 -0.000001 -179.645000 12.636600 178.940000 -39.081100 -0.002282 -0.040193 -0.057293 0.171933 19.420400 -40.985400 0.000008 0.000006 3.243050 8.295910 -65.496000 -11.754300 -0.000006 -0.000006 -0.006940 -0.079145 -19.795000
0.000000 0.000000 0.000000 0.000000 0.000000 -0.000000 -1.610030 92.314300 -0.607015 88.053000 -1.837560 3.453590 15.735700 0.000005 -0.000001 82.056800 85.670500 -80.795500 8.984550 -0.406207 -0.000000 0.825378 -1.272510 2.529940 16.377300 -0.000001 -0.000001 4.578790 -2.649410 1.157790 6.456720 -0.000001 -0.000000 2.301790 -1.966790 6.413390 12.994200 -0.242716 4.980390 -88.504800 -4.481270 -71.527100 5.348090 -0.000007 -0.000001 -80.134200 -34.065400 -70.971800 24.328600 0.000019 0.000005 16.796100 0.298317 -89.009400 22.291600 -0.000001 0.000005 40.044700 5.485200 -5.945340 12.994500 -0.242716 -4.980390 87.505300 7.045480 -70.444700 -5.348130 -0.000001 -0.000004 -64.410800 37.138800 -13.472200 -24.328900 0.000322 -0.000009 1.545090 4.297720 -19.808400 -22.291500 -0.000108 -0.000004 9.511900 5.329590 -0.773552 -2.192480 -6.469440 -0.000000 -174.891000 -7.278250 -2.836110 39.081100 -0.000007 -0.000012 -0.118110 0.285132 22.500900 40.985400 -0.000006 -0.000013 -0.957047 3.091920 -66.248800 11.754300 -0.000000 0.000003 -0.000042 -0.000486 -16.596500 -2.192510 6.469440 -0.000001 -179.748000 12.930300 179.111000 -39.081100 -0.002282 -0.040193 -0.061197 0.183008 19.420300 -40.985400 0.000008 0.000006 3.107520 8.230730 -65.566700 -11.754300 -0.000006 -0.000006 -0.006998 -0.079644 -19.815400
